<?xml version="1.0" encoding="iso-8859-1"?>
<!-- Generator: Adobe Illustrator 19.0.0, SVG Export Plug-In . SVG Version: 6.00 Build 0)  -->
<svg version="1.1" id="Layer_1" xmlns="http://www.w3.org/2000/svg" xmlns:xlink="http://www.w3.org/1999/xlink" x="0px" y="0px"
	 viewBox="0 0 512 512" style="enable-background:new 0 0 512 512;" xml:space="preserve">
<circle style="fill:#935635;" cx="256" cy="256" r="256"/>
<path style="fill:#804000;" d="M511.745,267.114l-150.65-150.65l-164.892,61.154l-64.324,24.916l48.557,48.557l-42.424,38.686
	l35.914,36.342l-0.072,0.221l-35.795-5.766l28.546,27.598l-21.133,63.645l99.947,99.947c3.512,0.143,7.037,0.234,10.585,0.234
	C393.659,512,505.923,403.34,511.745,267.114z"/>
<polygon style="fill:#F4E3C3;" points="342.976,120.994 169.024,120.994 196.205,82.942 315.795,82.942 "/>
<polygon style="fill:#FED8B2;" points="315.795,82.942 255.426,82.942 255.426,120.994 342.976,120.994 "/>
<path style="fill:#F4E3C3;" d="M145.468,172.635v239.183h65.684v-134.54c0-24.767,20.078-44.847,44.847-44.847
	s44.847,20.078,44.847,44.847v134.54h65.684V172.635H145.468z"/>
<path style="fill:#FED8B2;" d="M255.426,172.635v59.811c0.191-0.002,0.381-0.014,0.574-0.014c24.767,0,44.847,20.078,44.847,44.847
	v134.54h65.684V172.635H255.426z"/>
<rect x="150.911" y="116.467" style="fill:#EAC19B;" width="210.196" height="38.047"/>
<rect x="255.431" y="116.467" style="fill:#E0B085;" width="105.675" height="38.047"/>
<rect x="139.119" y="147.721" style="fill:#F4E3C3;" width="233.744" height="29.898"/>
<rect x="255.431" y="147.721" style="fill:#FED8B2;" width="117.45" height="29.898"/>
<rect x="131.879" y="172.632" style="fill:#EAC19B;" width="248.242" height="29.898"/>
<rect x="255.431" y="172.632" style="fill:#E0B085;" width="124.69" height="29.898"/>
<circle style="fill:#EAC19B;" cx="181.251" cy="247.38" r="14.95"/>
<circle style="fill:#E0B085;" cx="330.749" cy="247.38" r="14.95"/>
<path style="fill:#F2C59E;" d="M211.153,280.45h-69.308c-3.003,0-5.435,2.434-5.435,5.435s2.434,5.435,5.435,5.435h69.308V280.45z"
	/>
<path style="fill:#E0B085;" d="M370.155,280.45h-69.308v10.873h69.308c3.003,0,5.435-2.434,5.435-5.435
	S373.158,280.45,370.155,280.45z"/>
<path style="fill:#F2C59E;" d="M211.153,311.253h-69.308c-3.003,0-5.435,2.434-5.435,5.435s2.434,5.435,5.435,5.435h69.308V311.253z
	"/>
<path style="fill:#E0B085;" d="M370.155,311.253h-69.308v10.873h69.308c3.003,0,5.435-2.434,5.435-5.435
	S373.158,311.253,370.155,311.253z"/>
<g>
</g>
<g>
</g>
<g>
</g>
<g>
</g>
<g>
</g>
<g>
</g>
<g>
</g>
<g>
</g>
<g>
</g>
<g>
</g>
<g>
</g>
<g>
</g>
<g>
</g>
<g>
</g>
<g>
</g>
</svg>
