<?xml version="1.0" encoding="iso-8859-1"?>
<!-- Generator: Adobe Illustrator 19.0.0, SVG Export Plug-In . SVG Version: 6.00 Build 0)  -->
<svg version="1.1" id="Layer_1" xmlns="http://www.w3.org/2000/svg" xmlns:xlink="http://www.w3.org/1999/xlink" x="0px" y="0px"
	 viewBox="0 0 512.001 512.001" style="enable-background:new 0 0 512.001 512.001;" xml:space="preserve">
<path style="fill:#6EAECD;" d="M345.301,232.881H139.717c-48.709,0-88.562,39.853-88.562,88.562v186.465h60.026v-38.421
	c0-17.357,14.07-31.427,31.427-31.427H259.7c17.357,0,31.558,14.201,31.558,31.558v38.29h54.569V382.399h17.605
	c19.209,0,34.781,15.572,34.781,34.781v64.051c0,3.367-2.73,6.096-6.096,6.096h-0.056c-3.218,0-5.852-2.633-5.852-5.852v-1.181
	c0-1.966-1.395-3.765-3.347-3.988c-2.435-0.277-4.292,1.616-4.292,3.99v4.716c0,5.989,4.9,10.89,10.89,10.89h21.124
	c10.417,0,16.822-8.555,19.063-18.994c2.212-11.128,12.516-64.314,20.586-123.456C458.906,289.848,409.494,232.881,345.301,232.881z
	"/>
<path style="fill:#FF705B;" d="M361.936,234.184c-5.411-0.855-10.964-1.312-16.635-1.312H139.717
	c-21.741,0-41.705,7.959-57.161,21.082l109.754,109.717c11.414,11.414,29.92,11.392,41.334-0.022L357.73,239.506
	C359.374,237.861,360.769,236.07,361.936,234.184z"/>
<path style="fill:#FFDB6C;" d="M338.61,232.872H139.717c-14.867,0-28.899,3.732-41.234,10.276l99.437,99.407
	c8.611,8.611,22.572,8.593,31.184-0.017l107.535-107.383C337.359,234.435,338.011,233.964,338.61,232.872z"/>
<path style="fill:#FF705B;" d="M139.717,232.872c-7.775,0-15.321,1.029-22.518,2.935l87.027,87.03
	c4.834,4.834,12.67,4.83,17.503-0.003l90.044-89.96H139.717V232.872z"/>
<path style="fill:#FFDB6C;" d="M144.798,232.872l63.295,63.307c2.756,2.756,7.224,2.758,9.981,0.002l63.361-63.308H144.798V232.872z
	"/>
<path style="fill:#FF705B;" d="M175.809,232.872l32.284,32.21c2.756,2.756,7.224,2.668,9.981-0.088l32.289-32.122h-74.554V232.872z"
	/>
<path style="fill:#9DCEE0;" d="M345.301,344.814l-54.915,12.203c-6.115,1.359-11.659-5.147-11.659-13.68v-71.528
	c0-8.358,5.329-14.813,11.345-13.744l55.229,9.818L345.301,344.814L345.301,344.814z"/>
<g>
	<path style="fill:#5388B4;" d="M122.077,507.808H51.138v-16.553h58.063c7.111,0,12.876,5.765,12.876,12.876
		C122.077,504.131,122.077,507.808,122.077,507.808z"/>
	<path style="fill:#5388B4;" d="M357.814,507.808H291.24v-16.553h53.468c7.209,0,13.106,5.898,13.106,13.106V507.808z"/>
</g>
<path style="fill:#634E9B;" d="M303.828,75.371c-13.521-30.558-39.101-50.76-69.142-54.442
	c-30.042,3.682-55.621,23.884-69.142,54.442H303.828z"/>
<path style="fill:#4C3A7A;" d="M234.808,20.945l-0.121-0.015c-30.042,3.676-55.621,23.932-69.142,54.442h23.647
	c9.954-23.162,26.447-39.646,46.445-48.316C238.626,25.758,238.045,21.344,234.808,20.945z"/>
<path style="fill:#634E9B;" d="M332.526,232.871H134.623l0,0c0-18.083,14.658-32.741,32.741-32.741h97.138h16.371h18.914
	C317.868,200.13,332.526,214.788,332.526,232.871L332.526,232.871z"/>
<path style="fill:#4C3A7A;" d="M134.623,232.872L134.623,232.872h197.903l0,0c0-5.965-1.603-12.005-4.391-16.371H139.013
	C136.226,220.867,134.623,226.907,134.623,232.872z"/>
<path d="M468.01,407.834c-2.184-3.954-7.201-5.367-11.161-3.186c-2.333,1.286-4.744,2.324-7.2,3.135
	c2.878-17.435,5.915-37.049,8.681-57.318c4.468-32.757-5.454-65.847-27.222-90.787c-21.676-24.833-52.955-39.076-85.817-39.076
	h-5.379c-2.981-14.643-13.804-26.468-27.876-30.884V87.104h5.41c4.522,0,8.185-3.665,8.185-8.185c0-4.52-3.664-8.185-8.185-8.185
	h-8.417c-15.184-30.382-42.246-50.572-73.325-54.381c-0.094-0.012-0.189-0.009-0.284-0.017c4.187-0.361,7.473-3.869,7.473-8.149
	c0-4.52-3.665-8.185-8.185-8.185c-4.52,0-8.185,3.665-8.185,8.185c0,4.28,3.286,7.788,7.473,8.149
	c-0.094,0.009-0.189,0.005-0.284,0.017c-31.08,3.809-58.141,23.998-73.325,54.381h-5.109c-4.522,0-8.185,3.665-8.185,8.185
	c0,4.52,3.664,8.185,8.185,8.185h2.102v101.99c-15.413,3.887-27.367,16.541-30.246,32.327
	c-47.428,6.183-84.174,46.845-84.174,95.931v186.465c0,4.52,3.664,8.185,8.185,8.185h60.026c0.414,0,0.816-0.04,1.214-0.099h9.709
	c4.522,0,8.185-3.665,8.185-8.185v-1.039c0-4.52-3.664-8.185-8.185-8.185c-1.45,0-2.812,0.378-3.994,1.039H59.331V317.35
	c0-21.783,8.723-41.556,22.842-56.048l104.365,104.2c7.265,7.265,16.813,10.895,26.372,10.895c9.601,0,19.215-3.663,26.537-10.985
	c3.197-3.197,3.197-8.38,0-11.575c-3.198-3.197-8.38-3.197-11.576,0c-8.228,8.229-21.576,8.27-29.762,0.085L94.766,250.743
	c6.086-4.12,12.772-7.409,19.885-9.749l83.803,83.674c3.861,3.862,8.979,6.036,14.409,6.123c0.112,0.001,0.224,0.002,0.336,0.002
	c5.427,0,10.506-2.097,14.334-5.924c3.197-3.197,3.197-8.38,0-11.575c-3.198-3.197-8.38-3.197-11.576,0
	c-0.954,0.955-2.085,1.154-2.833,1.127c-1.157-0.019-2.254-0.49-3.098-1.334l-76.008-75.89c1.882-0.132,3.774-0.224,5.689-0.224
	h205.583c28.133,0,54.917,12.199,73.483,33.47c18.659,21.378,27.165,49.738,23.336,77.81c-2.995,21.951-6.31,43.125-9.391,61.557
	c-12.682-1.003-24.775-7.526-32.341-18.604c-7.496-12.612-21.252-21.085-36.957-21.085h-17.605c-4.522,0-8.185,3.665-8.185,8.185
	v86.855c0,4.52,3.664,8.185,8.185,8.185c4.522,0,8.185-3.665,8.185-8.185v-78.67h9.42c9.422,0,17.708,4.929,22.434,12.338
	c0.147,0.296,0.308,0.587,0.494,0.87c0.064,0.097,0.135,0.186,0.2,0.283c2.202,3.871,3.467,8.342,3.467,13.105v38.605
	c0,4.52,3.664,8.185,8.185,8.185s8.185-3.665,8.185-8.185v-33.3c7.26,4.134,15.307,6.709,23.574,7.576
	c-4.278,24.565-7.663,41.766-8.342,45.185c-0.824,3.797-3.531,12.47-11.048,12.47h-21.124c-1.466,0-2.704-1.239-2.704-2.704v-4.715
	c0-4.52-3.664-8.185-8.185-8.185s-8.185,3.665-8.185,8.185v4.715c0,10.518,8.557,19.075,19.075,19.075h21.124
	c13.322,0,23.694-9.756,27.066-25.461c0.009-0.04,0.017-0.082,0.025-0.122c0.682-3.433,4.396-22.29,9.014-49.028
	c6.177-1.102,12.256-3.192,17.99-6.353c0.033-0.019,0.155-0.085,0.188-0.104C468.806,416.74,470.195,411.789,468.01,407.834z
	 M234.708,32.73c22.623,3.097,42.68,16.967,55.623,38.003H179.085C192.028,49.697,212.085,35.828,234.708,32.73z M167.386,204.222
	h97.132c4.522,0,8.185-3.665,8.185-8.185c0-4.52-3.664-8.185-8.185-8.185h-90.766V87.104h121.914v101.882
	c-2.417,1.423-4.044,4.045-4.044,7.051c0,4.52,3.664,8.185,8.185,8.185c10.671,0,19.775,6.843,23.154,16.371H144.232
	C147.61,211.064,156.713,204.222,167.386,204.222z"/>
<path d="M288.326,262.078l54.975,9.773c4.447,0.793,8.7-2.176,9.491-6.626c0.792-4.452-2.175-8.7-6.626-9.492l-55.228-9.819
	c-4.684-0.833-9.369,0.474-13.194,3.679c-4.865,4.076-7.77,10.852-7.77,18.123v71.528c0,7.45,3.018,14.317,8.072,18.371
	c3.02,2.422,6.522,3.68,10.12,3.68c1.137,0,2.284-0.125,3.429-0.38l54.914-12.203c4.414-0.98,7.195-5.353,6.214-9.766
	c-0.979-4.412-5.352-7.199-9.766-6.214l-54.645,12.14c-0.683-0.492-1.969-2.475-1.969-5.63v-71.528
	C286.346,264.541,287.648,262.552,288.326,262.078z"/>
<circle cx="403.123" cy="315.451" r="8.185"/>
<path d="M357.831,494.16c-1.676,0-3.236,0.504-4.534,1.369h-7.472h-46.383v-30.235c0-21.843-17.829-39.613-39.743-39.613h-117.03
	c-21.877,0-39.675,17.77-39.675,39.613c0,4.52,3.664,8.185,8.185,8.185c4.522,0,8.185-3.665,8.185-8.185
	c0-12.816,10.454-23.242,23.304-23.242h117.029c12.888,0,23.373,10.426,23.373,23.242v38.421c0,4.52,3.664,8.185,8.185,8.185h54.569
	h12.005c4.522,0,8.185-3.665,8.185-8.185v-1.369C366.016,497.825,362.351,494.16,357.831,494.16z"/>
<g>
</g>
<g>
</g>
<g>
</g>
<g>
</g>
<g>
</g>
<g>
</g>
<g>
</g>
<g>
</g>
<g>
</g>
<g>
</g>
<g>
</g>
<g>
</g>
<g>
</g>
<g>
</g>
<g>
</g>
</svg>
