<?xml version="1.0" encoding="iso-8859-1"?>
<!-- Generator: Adobe Illustrator 19.0.0, SVG Export Plug-In . SVG Version: 6.00 Build 0)  -->
<svg version="1.1" id="Layer_1" xmlns="http://www.w3.org/2000/svg" xmlns:xlink="http://www.w3.org/1999/xlink" x="0px" y="0px"
	 viewBox="0 0 512 512" style="enable-background:new 0 0 512 512;" xml:space="preserve">
<path style="fill:#EAC591;" d="M158.159,74.803v79.134h32.751V74.803H158.159z"/>
<path style="fill:#E0AC70;" d="M182.198,145.652h-16.146v-37.725c0-4.458,3.615-8.073,8.073-8.073s8.073,3.615,8.073,8.073
	L182.198,145.652L182.198,145.652z"/>
<path style="fill:#EAC591;" d="M316.09,74.803v79.134h32.751V74.803H316.09z"/>
<path style="fill:#E0AC70;" d="M340.538,145.652h-16.146v-37.725c0-4.458,3.615-8.073,8.073-8.073c4.458,0,8.073,3.615,8.073,8.073
	L340.538,145.652L340.538,145.652z"/>
<rect x="158.163" y="153.938" style="fill:#EFD7AB;" width="190.685" height="60.447"/>
<g>
	<path style="fill:#EAC591;" d="M190.701,74.804c0.162-0.946,0.308-2.355,0.123-4.032c-0.122-1.114-0.565-3.918-3.127-7.651
		c-2.07-3.017-3.467-3.643-6.582-6.747c-1.668-1.663-4.021-4.227-6.5-7.815h-0.165c-2.478,3.588-4.832,6.153-6.5,7.815
		c-3.115,3.104-4.512,3.729-6.582,6.747c-2.561,3.734-3.003,6.538-3.127,7.651c-0.184,1.677-0.038,3.085,0.123,4.032H190.701z"/>
	<path style="fill:#EAC591;" d="M348.631,74.804c0.162-0.946,0.308-2.355,0.123-4.032c-0.122-1.114-0.565-3.918-3.127-7.651
		c-2.07-3.017-3.467-3.643-6.582-6.747c-1.668-1.663-4.021-4.227-6.5-7.815h-0.165c-2.478,3.588-4.832,6.153-6.5,7.815
		c-3.115,3.104-4.512,3.729-6.582,6.747c-2.561,3.734-3.003,6.538-3.127,7.651c-0.185,1.677-0.038,3.085,0.123,4.032H348.631z"/>
</g>
<path style="fill:#EFD7AB;" d="M462.029,214.39H49.97c-3.635,0-6.583,2.946-6.583,6.583v254.081H222.26V370.772
	c0-16.855,13.664-30.519,30.519-30.519l0,0c16.856,0,30.519,13.664,30.519,30.519v104.282h185.312V220.972
	C468.612,217.336,465.665,214.39,462.029,214.39z"/>
<g>
	<path style="fill:#EAC591;" d="M147.97,318.419H50.035c-16.48,0-29.839-13.36-29.839-29.839l0,0H147.97V318.419z"/>
	<path style="fill:#EAC591;" d="M359.029,318.419h102.935c16.48,0,29.839-13.36,29.839-29.839l0,0H359.029V318.419z"/>
	<rect x="147.967" y="153.938" style="fill:#EAC591;" width="42.936" height="321.119"/>
</g>
<g>
	<path style="fill:#E0AC70;" d="M147.97,475.054H73.736v-80.445c0-20.5,16.618-37.117,37.117-37.117l0,0
		c20.5,0,37.117,16.618,37.117,37.117V475.054z"/>
	<path style="fill:#E0AC70;" d="M433.263,475.054h-74.235v-80.445c0-20.5,16.618-37.117,37.117-37.117l0,0
		c20.5,0,37.117,16.618,37.117,37.117V475.054z"/>
</g>
<g>
	<rect x="316.086" y="153.938" style="fill:#EAC591;" width="42.936" height="321.119"/>
	<path style="fill:#EAC591;" d="M363.19,305.228H148.81c-4.522,0-8.188-3.665-8.188-8.188s3.666-8.188,8.188-8.188h214.382
		c4.523,0,8.188,3.665,8.188,8.188S367.713,305.228,363.19,305.228z"/>
</g>
<g>
	<rect x="433.268" y="318.422" style="fill:#EFD7AB;" width="35.348" height="156.635"/>
	<rect x="43.388" y="318.422" style="fill:#EFD7AB;" width="30.348" height="156.635"/>
</g>
<g>
	<rect x="147.967" y="318.422" style="fill:#E0AC70;" width="42.936" height="10.325"/>
	<rect x="316.086" y="318.422" style="fill:#E0AC70;" width="42.936" height="10.325"/>
</g>
<g>
	<rect x="190.914" y="162.126" style="fill:#EAC591;" width="125.183" height="9.689"/>
	<path style="fill:#EAC591;" d="M462.029,214.39H49.97c-3.635,0-6.583,2.946-6.583,6.583v11.839h425.224v-11.839
		C468.612,217.336,465.665,214.39,462.029,214.39z"/>
</g>
<g>
	<rect x="147.967" y="162.126" style="fill:#E0AC70;" width="42.827" height="9.689"/>
	<rect x="147.967" y="239.995" style="fill:#E0AC70;" width="42.827" height="16.375"/>
	<rect x="316.152" y="239.995" style="fill:#E0AC70;" width="42.827" height="16.375"/>
	<rect x="147.967" y="288.575" style="fill:#E0AC70;" width="42.936" height="16.375"/>
	<rect x="316.152" y="288.575" style="fill:#E0AC70;" width="42.881" height="16.375"/>
	<path style="fill:#E0AC70;" d="M147.97,304.954v-16.375H20.196c0,6.049,1.806,11.673,4.898,16.375H147.97z"/>
	<path style="fill:#E0AC70;" d="M486.905,304.954c3.094-4.702,4.898-10.326,4.898-16.375H359.029v16.375H486.905z"/>
	<path style="fill:#E0AC70;" d="M297.326,206.247h-86.948c-2.11,0-3.82-1.711-3.82-3.82v-14.443c0-2.11,1.711-3.82,3.82-3.82h86.948
		c2.11,0,3.82,1.711,3.82,3.82v14.443C301.147,204.537,299.436,206.247,297.326,206.247z"/>
	<rect x="316.152" y="162.126" style="fill:#E0AC70;" width="42.827" height="9.689"/>
</g>
<path style="fill:#EFD7AB;" d="M368.238,162.126H143.856c-4.522,0-8.188-3.665-8.188-8.188s3.666-8.188,8.188-8.188h224.382
	c4.523,0,8.188,3.665,8.188,8.188S372.76,162.126,368.238,162.126z"/>
<path d="M503.812,466.866H476.8V323.591c13.618-5.792,23.192-19.304,23.192-35.013c0-4.523-3.665-8.188-8.188-8.188H476.8v-24.017
	h15.004c4.523,0,8.188-3.665,8.188-8.188s-3.665-8.188-8.188-8.188H476.8v-19.027c0-8.145-6.625-14.77-14.769-14.77h-94.814v-44.076
	h16.558c4.523,0,8.188-3.665,8.188-8.188s-3.665-8.188-8.188-8.188h-24.745h-2.001V82.991h0.546c4.523,0,8.188-3.665,8.188-8.188
	c0-4.523-3.665-8.188-8.188-8.188h-1.318c-0.746-2.722-2.036-5.444-3.878-8.126c-1.916-2.794-3.571-4.267-5.169-5.694
	c-0.722-0.643-1.467-1.307-2.384-2.22c-1.437-1.431-2.805-3.002-4.091-4.681v-8.947c0-4.523-3.665-8.188-8.188-8.188
	s-8.188,3.665-8.188,8.188v8.739c-1.332,1.759-2.758,3.398-4.253,4.89c-0.916,0.913-1.662,1.576-2.383,2.219
	c-1.6,1.427-3.255,2.902-5.172,5.695c-1.841,2.683-3.131,5.406-3.877,8.126h-1.318c-4.523,0-8.188,3.665-8.188,8.188
	c0,4.523,3.665,8.188,8.188,8.188h0.546v62.759H199.097V82.991h0.546c4.522,0,8.188-3.665,8.188-8.188
	c0-4.523-3.666-8.188-8.188-8.188h-1.318c-0.746-2.724-2.036-5.445-3.877-8.126c-1.916-2.793-3.571-4.267-5.17-5.693
	c-0.722-0.643-1.467-1.308-2.383-2.22c-1.438-1.433-2.807-3.004-4.092-4.682v-8.947c0-4.523-3.666-8.188-8.188-8.188
	s-8.188,3.665-8.188,8.188v8.739c-1.332,1.759-2.758,3.397-4.255,4.891c-0.915,0.912-1.66,1.576-2.382,2.218
	c-1.6,1.428-3.255,2.902-5.171,5.695c-1.842,2.682-3.132,5.405-3.877,8.126h-1.318c-4.522,0-8.188,3.665-8.188,8.188
	c0,4.523,3.666,8.188,8.188,8.188h0.546v62.759h-2.001h-19.65c-4.522,0-8.188,3.665-8.188,8.188s3.666,8.188,8.188,8.188h11.463
	v44.076H49.97c-8.144,0-14.769,6.625-14.769,14.77v19.027H20.196c-4.522,0-8.188,3.665-8.188,8.188c0,4.523,3.666,8.188,8.188,8.188
	H35.2v24.017H20.196c-4.522,0-8.188,3.665-8.188,8.188c0,15.707,9.574,29.22,23.192,35.012v143.275H8.188
	c-4.522,0-8.188,3.665-8.188,8.188s3.666,8.188,8.188,8.188h495.625c4.523,0,8.188-3.665,8.188-8.188
	S508.335,466.866,503.812,466.866z M367.216,222.576h93.208v17.422h-59.277c-4.523,0-8.188,3.665-8.188,8.188
	c0,4.523,3.665,8.188,8.188,8.188h25.043v24.017h-58.974V222.576z M460.424,256.374v24.017h-17.858v-24.017L460.424,256.374
	L460.424,256.374z M367.216,296.766h114.792c-3.235,7.892-11.001,13.464-20.043,13.464h-94.748L367.216,296.766L367.216,296.766z
	 M367.216,326.605h57.859v33.166c-7.854-6.533-17.94-10.469-28.93-10.469c-10.99,0-21.076,3.937-28.93,10.469V326.605z
	 M328.619,65.018c0.805-0.716,1.806-1.609,3.046-2.844c0.269-0.267,0.536-0.539,0.8-0.813c0.265,0.275,0.533,0.546,0.802,0.814
	c1.238,1.234,2.24,2.127,3.045,2.844c0.769,0.686,1.25,1.117,1.682,1.597h-11.059C327.368,66.136,327.848,65.705,328.619,65.018z
	 M324.277,82.991h16.375v62.759h-16.375V82.991z M324.277,162.126h24.563h2.001v44.076h-26.564V162.126z M324.277,222.576h26.564
	v57.815h-26.564V222.576z M324.277,296.766h26.564v21.651v76.19v6.142h-26.564V296.766z M199.097,162.126h108.805v44.076H199.097
	V162.126z M199.097,222.576h108.805v57.815h-24.259v-32.205c0-4.523-3.665-8.188-8.188-8.188s-8.188,3.665-8.188,8.188v32.205
	h-26.231v-32.205c0-4.523-3.666-8.188-8.188-8.188s-8.188,3.665-8.188,8.188v32.205h-25.564L199.097,222.576L199.097,222.576z
	 M170.688,65.019c0.805-0.717,1.807-1.61,3.045-2.844c0.27-0.269,0.537-0.539,0.802-0.814c0.265,0.275,0.533,0.546,0.801,0.814
	c1.239,1.235,2.241,2.127,3.046,2.845c0.77,0.686,1.25,1.116,1.682,1.596h-11.059C169.437,66.136,169.917,65.705,170.688,65.019z
	 M166.347,82.991h16.375v62.759h-16.375V82.991z M156.158,162.126h2.001h24.563v44.076h-26.564V162.126z M156.158,222.576h26.564
	v57.815h-26.564V222.576z M156.158,394.607v-76.19v-21.651h26.564v103.983h-26.564V394.607z M51.576,222.576h88.207v57.815H81.923
	v-24.017h28.93c4.522,0,8.188-3.665,8.188-8.188c0-4.523-3.666-8.188-8.188-8.188H51.576V222.576z M51.576,256.374h13.972v24.017
	H51.576V256.374z M29.992,296.766h109.791v13.464H50.035C40.993,310.23,33.227,304.658,29.992,296.766z M139.783,326.605v33.166
	c-7.854-6.533-17.94-10.469-28.93-10.469s-21.076,3.937-28.93,10.469v-33.166H139.783z M51.576,466.866v-140.26h13.972v68.002
	v50.082c0,4.523,3.666,8.188,8.188,8.188c4.522,0,8.188-3.665,8.188-8.188v-50.082c0-15.952,12.978-28.93,28.93-28.93
	s28.93,12.978,28.93,28.93v50.082c0,4.523,3.666,8.188,8.188,8.188s8.188-3.665,8.188-8.188v-27.565h26.564v49.74H51.576z
	 M230.449,466.866v-96.094c0-12.313,10.017-22.331,22.331-22.331s22.331,10.018,22.331,22.331v96.094L230.449,466.866
	L230.449,466.866z M291.487,466.866v-96.094c0-21.344-17.363-38.707-38.707-38.707c-21.342,0-38.707,17.363-38.707,38.707v96.094
	h-14.977v-170.1h108.805v170.099h-16.415V466.866z M324.277,466.866v-49.74h26.564v27.565c0,4.523,3.665,8.188,8.188,8.188
	c4.523,0,8.188-3.665,8.188-8.188v-50.082c0-15.952,12.978-28.93,28.93-28.93s28.93,12.978,28.93,28.93v50.082
	c0,4.523,3.665,8.188,8.188,8.188s8.188-3.665,8.188-8.188v-50.082v-68.002h18.974v140.26L324.277,466.866L324.277,466.866z"/>
<g>
</g>
<g>
</g>
<g>
</g>
<g>
</g>
<g>
</g>
<g>
</g>
<g>
</g>
<g>
</g>
<g>
</g>
<g>
</g>
<g>
</g>
<g>
</g>
<g>
</g>
<g>
</g>
<g>
</g>
</svg>
