<?xml version="1.0" encoding="iso-8859-1"?>
<!-- Generator: Adobe Illustrator 19.0.0, SVG Export Plug-In . SVG Version: 6.00 Build 0)  -->
<svg version="1.1" id="Layer_1" xmlns="http://www.w3.org/2000/svg" xmlns:xlink="http://www.w3.org/1999/xlink" x="0px" y="0px"
	 viewBox="0 0 512.002 512.002" style="enable-background:new 0 0 512.002 512.002;" xml:space="preserve">
<path style="fill:#FFDB6C;" d="M339.858,198.164c0,49.549-33.64,89.717-83.189,89.717s-89.717-40.168-89.717-89.717
	S256.669,8.16,256.669,8.16S339.858,148.615,339.858,198.164z"/>
<path style="fill:#FF705B;" d="M315.387,229.162c0,32.429-26.288,58.718-58.718,58.718s-58.719-26.288-58.719-58.718
	s58.719-124.354,58.719-124.354S315.387,196.733,315.387,229.162z"/>
<path style="fill:#F44A46;" d="M288.443,256.106c0,17.549-14.226,31.774-31.774,31.774s-31.774-14.226-31.774-31.774
	s31.774-67.293,31.774-67.293S288.443,238.557,288.443,256.106z"/>
<path style="fill:#634E9B;" d="M382.101,503.84H128.06l0,0c0-19.528,15.831-35.359,35.359-35.359h183.324
	C366.27,468.481,382.101,484.312,382.101,503.84L382.101,503.84z"/>
<path style="fill:#4C3A7A;" d="M346.742,468.481h-45.151c19.528,0,35.359,15.831,35.359,35.359l0,0h45.15l0,0
	C382.101,484.312,366.27,468.481,346.742,468.481z"/>
<path style="fill:#F1709F;" d="M164.413,468.481h183.175c60.766-31.166,103.855-92.132,110.049-162.953
	c0.831-9.502-6.742-17.649-8.666-17.649H78.261c-17.154,0-24.727,8.147-23.897,17.649
	C60.558,376.349,103.647,437.317,164.413,468.481z"/>
<path style="fill:#ED589C;" d="M441.355,287.88h-58.037c9.538,0,17.111,8.147,16.28,17.649
	c-6.194,70.82-49.283,131.787-110.049,162.953h58.037c60.766-31.166,103.855-92.133,110.049-162.953
	C458.466,296.027,450.893,287.88,441.355,287.88z"/>
<path style="fill:#FFDB6C;" d="M367.29,343.288c-27.257,0-49.957,19.229-55.03,45.962c-0.099,0.52-0.546,0.899-1.075,0.899l0,0
	c-0.529,0-0.976-0.379-1.075-0.899c-5.073-26.729-27.774-45.826-55.03-45.826s-49.957,19.096-55.03,45.826
	c-0.099,0.52-0.546,0.899-1.075,0.899l0,0c-0.529,0-0.976-0.379-1.075-0.899c-5.073-26.732-27.774-45.962-55.03-45.962
	c-30.973,0-56.082,25.382-56.104,56.785c19.256,28.829,45.673,52.482,76.725,68.408h183.175
	c31.053-15.926,57.47-39.579,76.725-68.408C423.372,368.672,398.262,343.288,367.29,343.288z"/>
<path style="fill:#FFB04C;" d="M423.393,400.074c-0.015-22.814-13.279-42.439-32.405-51.474
	c-16.458,52.006-53.419,95.253-101.44,119.882h57.118C377.72,452.556,404.138,428.902,423.393,400.074z"/>
<path d="M459.45,287.684c-4.637-5.06-11.232-7.963-18.095-7.963H309.63c26.394-17.55,40.564-47.554,40.564-81.557
	c0-51.342-82.932-188.579-86.649-194.396C262.046,1.421,259.454,0,256.669,0s-5.378,1.421-6.877,3.768
	c-3.715,5.817-90.999,143.053-90.999,194.396c0,34.003,17.434,64.007,43.828,81.557H70.646c-6.863,0-13.458,2.903-18.095,7.963
	c-4.604,5.024-6.906,11.788-6.315,18.557C49.364,342,61.796,376.664,82.19,406.484c16.099,23.539,36.849,43.649,60.708,58.995
	c-13.676,7.345-22.997,21.784-22.997,38.364c0,4.507,3.653,8.16,8.16,8.16h254.042c4.507,0,8.16-3.652,8.16-8.16
	c0-16.177-8.879-30.31-22.013-37.81c24.219-15.413,45.272-35.728,61.564-59.549c20.393-29.82,32.826-64.484,35.954-100.243
	C466.356,299.472,464.055,292.708,459.45,287.684z M175.112,198.164c0-35.469,53.679-129.581,81.557-174.657
	c27.878,45.077,75.029,139.19,75.029,174.657c0,44.971-30.058,81.557-75.029,81.557C211.699,279.72,175.112,243.135,175.112,198.164
	z M137.469,495.681c3.474-11.024,13.793-19.039,25.949-19.039h0.994h182.33c12.157,0,22.475,8.015,25.949,19.039H137.469z
	 M449.507,304.819c-2.883,32.972-14.352,64.941-33.167,92.452c-18.085,26.446-42.517,48.212-70.745,63.052H166.405
	c-28.229-14.84-52.66-36.606-70.746-63.052c-18.814-27.51-30.282-59.479-33.167-92.452c-0.198-2.254,0.544-4.425,2.089-6.11
	c1.578-1.721,3.731-2.669,6.063-2.669h370.709c2.334,0,4.487,0.948,6.063,2.669C448.963,300.393,449.705,302.565,449.507,304.819z"
	/>
<path d="M256.669,92.59c-2.785,0-5.378,1.421-6.877,3.768c-5.082,7.956-49.649,78.543-49.649,106.824c0,4.507,3.653,8.16,8.16,8.16
	c4.506,0,8.16-3.652,8.16-8.16c0-5.456,3.008-20.149,23.151-57.26c6.222-11.463,12.494-22.108,17.056-29.647
	c4.561,7.539,10.834,18.184,17.056,29.647c20.144,37.11,23.151,51.803,23.151,57.26c0,4.507,3.652,8.16,8.16,8.16
	s8.16-3.652,8.16-8.16c0-28.279-44.568-98.868-49.65-106.824C262.046,94.011,259.454,92.59,256.669,92.59z"/>
<path d="M256.669,176.595c-2.785,0-5.378,1.421-6.877,3.768c-4.957,7.76-29.684,47.343-29.684,64.541c0,4.507,3.653,8.16,8.16,8.16
	c4.506,0,8.16-3.652,8.16-8.16c0-4.788,6.34-21.201,20.243-44.605c13.902,23.398,20.24,39.812,20.24,44.605
	c0,4.507,3.652,8.16,8.16,8.16c4.507,0,8.16-3.652,8.16-8.16c0-17.2-24.727-56.781-29.684-64.541
	C262.046,178.016,259.454,176.595,256.669,176.595z"/>
<path d="M367.29,334.993c-24.072,0-45.096,13.469-56.104,33.352c-11.008-19.883-32.032-33.352-56.104-33.352
	s-45.096,13.469-56.104,33.352c-11.008-19.883-32.032-33.352-56.104-33.352c-17.188,0-33.341,6.78-45.482,19.094
	c-3.164,3.21-3.128,8.375,0.081,11.539c3.207,3.164,8.374,3.127,11.539-0.079c9.051-9.179,21.077-14.234,33.863-14.234
	c26.436,0,47.944,21.862,47.944,48.733c0,4.507,3.653,8.16,8.16,8.16c4.506,0,8.16-3.652,8.16-8.16
	c0-26.872,21.508-48.733,47.944-48.733c26.437,0,47.944,21.862,47.944,48.733c0,4.507,3.652,8.16,8.16,8.16
	c4.507,0,8.16-3.652,8.16-8.16c0-26.872,21.508-48.733,47.944-48.733c11.993,0,23.471,4.523,32.32,12.737
	c3.304,3.065,8.465,2.872,11.532-0.43c3.065-3.303,2.873-8.467-0.43-11.532C398.835,341.064,383.413,334.993,367.29,334.993z"/>
<circle cx="142.012" cy="387.315" r="9.14"/>
<circle cx="255.998" cy="387.315" r="9.14"/>
<circle cx="368.003" cy="387.315" r="9.14"/>
<g>
</g>
<g>
</g>
<g>
</g>
<g>
</g>
<g>
</g>
<g>
</g>
<g>
</g>
<g>
</g>
<g>
</g>
<g>
</g>
<g>
</g>
<g>
</g>
<g>
</g>
<g>
</g>
<g>
</g>
</svg>
